# xmcd CD database file
#
# Track frame offsets:
#	187
#	27725
#	61177
#	101252
#	128627
#	154342
#	179607
#	205830
#
# Disc length: 2983 seconds
#
# Revision: 0
# Processed by: cddbd v1.5.2PL0 Copyright (c) Steve Scherf et al.
# Submitted via: CDex 1.70beta2
#
DISCID=6a0ba508
DTITLE=Jazz Factory - Miracle Runner
DYEAR=1986
DGENRE=Jazz
TTITLE0=Bud City
TTITLE1=Ariake
TTITLE2=Miracle Runner
TTITLE3=Ezz Thetic
TTITLE4=Willow Weep for Me
TTITLE5=Poinciana
TTITLE6=Twilight Color
TTITLE7=Double Bass
EXTD=YEAR: 1986
EXTT0=
EXTT1=
EXTT2=
EXTT3=
EXTT4=
EXTT5=
EXTT6=
EXTT7=
PLAYORDER=
